<?xml version="1.0" encoding="UTF-8"?>
<svg version="1.1" xmlns="http://www.w3.org/2000/svg" width="32" height="32">
<path d="M0 0 C10.56 0 21.12 0 32 0 C32 10.56 32 21.12 32 32 C21.44 32 10.88 32 0 32 C0 21.44 0 10.88 0 0 Z " fill="#B5A48B" transform="translate(0,0)"/>
<path d="M0 0 C0.66 0.99 1.32 1.98 2 3 C2.6496875 2.2575 2.6496875 2.2575 3.3125 1.5 C5 0 5 0 8 0 C8.33 1.32 8.66 2.64 9 4 C10.11375 4.144375 11.2275 4.28875 12.375 4.4375 C16 5 16 5 18 6 C18 13.26 18 20.52 18 28 C15.69 28 13.38 28 11 28 C11.33 27.34 11.66 26.68 12 26 C10.74703125 25.80664062 9.4940625 25.61328125 8.203125 25.4140625 C6.5520282 25.15138801 4.90098951 24.88834802 3.25 24.625 C2.425 24.49867187 1.6 24.37234375 0.75 24.2421875 C-0.04921875 24.11328125 -0.8484375 23.984375 -1.671875 23.8515625 C-2.4050293 23.73635254 -3.13818359 23.62114258 -3.89355469 23.50244141 C-6.15087834 22.96401163 -7.97009934 22.1112302 -10 21 C-10 20.34 -10 19.68 -10 19 C-7.47524538 17.73762269 -5.68799534 17.90143596 -2.875 17.9375 C-1.96492187 17.94652344 -1.05484375 17.95554687 -0.1171875 17.96484375 C0.58148438 17.97644531 1.28015625 17.98804687 2 18 C1.67 17.34 1.34 16.68 1 16 C-0.89533342 15.53476937 -0.89533342 15.53476937 -3.0625 15.375 C-4.361875 15.25125 -5.66125 15.1275 -7 15 C-6.67 14.34 -6.34 13.68 -6 13 C-6.39938767 10.90178785 -6.39938767 10.90178785 -7 9 C-6.34 9 -5.68 9 -5 9 C-5 7.35 -5 5.7 -5 4 C-4.360625 3.896875 -3.72125 3.79375 -3.0625 3.6875 C-2.381875 3.460625 -1.70125 3.23375 -1 3 C-0.67 2.01 -0.34 1.02 0 0 Z " fill="#E3D3AA" transform="translate(14,4)"/>
<path d="M0 0 C7.59 0 15.18 0 23 0 C19.55549263 2.29633824 17.06187717 2.54016485 13 3 C12.67 3.99 12.34 4.98 12 6 C10.68 5.34 9.36 4.68 8 4 C8 3.34 8 2.68 8 2 C6.35 1.67 4.7 1.34 3 1 C3.65585189 4.60992379 3.65585189 4.60992379 5 8 C5.66 8 6.32 8 7 8 C8.15019009 11.45057028 7.80497206 12.30159244 6.625 15.625 C6.21121094 16.81996094 6.21121094 16.81996094 5.7890625 18.0390625 C5 20 5 20 4 21 C3.66656449 23.45792029 3.66656449 23.45792029 4 26 C4.99 26.66 5.98 27.32 7 28 C6.34 28.33 5.68 28.66 5 29 C4.67 29.99 4.34 30.98 4 32 C2.68 32 1.36 32 0 32 C0 21.44 0 10.88 0 0 Z " fill="#FAEAC9" transform="translate(0,0)"/>
<path d="M0 0 C0 0.66 0 1.32 0 2 C-2.64 1.67 -5.28 1.34 -8 1 C-7.67 2.98 -7.34 4.96 -7 7 C-6.01 7.33 -5.02 7.66 -4 8 C-4.33 8.33 -4.66 8.66 -5 9 C-12.51783805 8.95584236 -19.14300724 8.09236929 -26 5 C-26 4.34 -26 3.68 -26 3 C-23.47524538 1.73762269 -21.68799534 1.90143596 -18.875 1.9375 C-17.96492188 1.94652344 -17.05484375 1.95554687 -16.1171875 1.96484375 C-15.41851562 1.97644531 -14.71984375 1.98804688 -14 2 C-14.33 1.34 -14.66 0.68 -15 0 C-16.89533342 -0.46523063 -16.89533342 -0.46523063 -19.0625 -0.625 C-20.361875 -0.74875 -21.66125 -0.8725 -23 -1 C-23 -1.33 -23 -1.66 -23 -2 C-15.18603402 -3.0993032 -7.27228757 -3.63614379 0 0 Z " fill="#F0DAD9" transform="translate(30,20)"/>
<path d="M0 0 C0 3.3 0 6.6 0 10 C-3.63 9.67 -7.26 9.34 -11 9 C-10.67 7.35 -10.34 5.7 -10 4 C-10.99 4.66 -11.98 5.32 -13 6 C-13.99 6.33 -14.98 6.66 -16 7 C-16.33 7.66 -16.66 8.32 -17 9 C-17 7.02 -17 5.04 -17 3 C-10.95435395 0.36189991 -6.59037352 -0.30892376 0 0 Z " fill="#9E9898" transform="translate(32,0)"/>
<path d="M0 0 C0.66 0.99 1.32 1.98 2 3 C2.433125 2.505 2.86625 2.01 3.3125 1.5 C5 0 5 0 8 0 C8.144375 0.804375 8.28875 1.60875 8.4375 2.4375 C8.74135249 4.92103706 8.74135249 4.92103706 10 6 C10.04080783 7.99958364 10.04254356 10.00045254 10 12 C7.03 12 4.06 12 1 12 C1.33 10.35 1.66 8.7 2 7 C-0.31 7.33 -2.62 7.66 -5 8 C-4.67 6.35 -4.34 4.7 -4 3 C-3.01 3 -2.02 3 -1 3 C-0.67 2.01 -0.34 1.02 0 0 Z " fill="#F7E7C5" transform="translate(14,4)"/>
<path d="M0 0 C0.66 0 1.32 0 2 0 C2 6.6 2 13.2 2 20 C-0.31 20 -2.62 20 -5 20 C-5 19.01 -5 18.02 -5 17 C-5.66 16.34 -6.32 15.68 -7 15 C-7.39764263 13.01178687 -7.73775349 11.01055661 -8 9 C-5.36 9.33 -2.72 9.66 0 10 C0.07095984 7.4454459 0.05950561 5.23802245 -0.5625 2.75 C-0.706875 2.1725 -0.85125 1.595 -1 1 C-0.67 0.67 -0.34 0.34 0 0 Z " fill="#F7D5C6" transform="translate(30,12)"/>
<path d="M0 0 C7.59 0 15.18 0 23 0 C19.55549263 2.29633824 17.06187717 2.54016485 13 3 C12.67 3.99 12.34 4.98 12 6 C10.68 5.34 9.36 4.68 8 4 C8 3.34 8 2.68 8 2 C6.35 1.67 4.7 1.34 3 1 C3.54723683 4.37462715 4.0549 6.08235 6 9 C3.03 11.475 3.03 11.475 0 14 C0 9.38 0 4.76 0 0 Z " fill="#BEBBBB" transform="translate(0,0)"/>
<path d="M0 0 C6.75 0.75 6.75 0.75 9 3 C8.67 2.67 8.34 2.34 8 2 C9.32 1.34 10.64 0.68 12 0 C12.99 0.66 13.98 1.32 15 2 C14.01 2.33 13.02 2.66 12 3 C11.731875 3.66 11.46375 4.32 11.1875 5 C10 7 10 7 7.125 7.8125 C4.38199986 7.97708001 2.56487088 7.88783992 0 7 C0 4.69 0 2.38 0 0 Z " fill="#605452" transform="translate(3,1)"/>
<path d="M0 0 C6.6 0.66 13.2 1.32 20 2 C17 5 17 5 13.64453125 5.29296875 C12.37996094 5.25816406 11.11539062 5.22335938 9.8125 5.1875 C8.54019531 5.16042969 7.26789062 5.13335937 5.95703125 5.10546875 C4.49330078 5.05326172 4.49330078 5.05326172 3 5 C2.67 4.01 2.34 3.02 2 2 C1.34 1.34 0.68 0.68 0 0 Z " fill="#607FA4" transform="translate(8,27)"/>
<path d="M0 0 C0.66 0.99 1.32 1.98 2 3 C1.5390625 5.26171875 1.5390625 5.26171875 0.625 7.6875 C0.32851562 8.49574219 0.03203125 9.30398437 -0.2734375 10.13671875 C-0.51320313 10.75160156 -0.75296875 11.36648437 -1 12 C-1.66 12 -2.32 12 -3 12 C-3.33 11.01 -3.66 10.02 -4 9 C-4.99 9.495 -4.99 9.495 -6 10 C-5.72510809 5.96825194 -5.46508424 4.43105369 -2.4375 1.625 C-1.633125 1.08875 -0.82875 0.5525 0 0 Z " fill="#F4E5C3" transform="translate(6,8)"/>
<path d="M0 0 C0.66 0 1.32 0 2 0 C2.02708567 1.60407328 2.04643483 3.2082785 2.0625 4.8125 C2.07410156 5.70582031 2.08570313 6.59914063 2.09765625 7.51953125 C2 10 2 10 1 13 C-3.455 12.01 -3.455 12.01 -8 11 C-8 10.34 -8 9.68 -8 9 C-5.36 9.33 -2.72 9.66 0 10 C0.07095984 7.4454459 0.05950561 5.23802245 -0.5625 2.75 C-0.706875 2.1725 -0.85125 1.595 -1 1 C-0.67 0.67 -0.34 0.34 0 0 Z " fill="#827869" transform="translate(30,12)"/>
<path d="M0 0 C0 0.66 0 1.32 0 2 C-2.475 1.505 -2.475 1.505 -5 1 C-5 0.34 -5 -0.32 -5 -1 C-6.65 -1 -8.3 -1 -10 -1 C-10 -0.34 -10 0.32 -10 1 C-10.99 0.7834375 -10.99 0.7834375 -12 0.5625 C-15.65599551 -0.12299916 -19.30622195 -0.56175515 -23 -1 C-23 -1.33 -23 -1.66 -23 -2 C-15.18603402 -3.0993032 -7.27228757 -3.63614379 0 0 Z " fill="#FAF4F2" transform="translate(30,20)"/>
<path d="M0 0 C-0.33 1.32 -0.66 2.64 -1 4 C-3.91482778 4.80967438 -5.46113217 5.21845993 -8.3125 4.0625 C-8.869375 3.711875 -9.42625 3.36125 -10 3 C-10 2.34 -10 1.68 -10 1 C-6.78548731 -0.60725635 -3.56387464 -0.05748185 0 0 Z " fill="#FCD1CE" transform="translate(14,22)"/>
<path d="M0 0 C0.99 0.495 0.99 0.495 2 1 C2 1.66 2 2.32 2 3 C2.99 3.33 3.98 3.66 5 4 C5 4.66 5 5.32 5 6 C6.32 6.66 7.64 7.32 9 8 C8.67 8.66 8.34 9.32 8 10 C5.69 10 3.38 10 1 10 C1.20625 9.38125 1.4125 8.7625 1.625 8.125 C1.74875 7.42375 1.8725 6.7225 2 6 C1.34 5.34 0.68 4.68 0 4 C0 2.68 0 1.36 0 0 Z " fill="#8094AD" transform="translate(3,22)"/>
<path d="M0 0 C0.33 0 0.66 0 1 0 C1 1.65 1 3.3 1 5 C1.66 5.33 2.32 5.66 3 6 C0.36 6.66 -2.28 7.32 -5 8 C-4.67 6.35 -4.34 4.7 -4 3 C-3.01 3 -2.02 3 -1 3 C-0.67 2.01 -0.34 1.02 0 0 Z " fill="#F4E8CE" transform="translate(14,4)"/>
<path d="M0 0 C1.32 1.65 2.64 3.3 4 5 C2.35830472 7.02054804 0.69088222 9.02043058 -1 11 C-1.33 11 -1.66 11 -2 11 C-2.25 3.375 -2.25 3.375 0 0 Z " fill="#9F9891" transform="translate(2,3)"/>
<path d="M0 0 C5.75 0.875 5.75 0.875 8 2 C8 2.66 8 3.32 8 4 C6.125 5.0625 6.125 5.0625 4 6 C1.2160817 4.60804085 1.02101003 2.84424221 0 0 Z " fill="#F4E7C5" transform="translate(24,8)"/>
<path d="M0 0 C1.32 0.33 2.64 0.66 4 1 C4.33 2.98 4.66 4.96 5 7 C2.525 6.01 2.525 6.01 0 5 C0 3.35 0 1.7 0 0 Z " fill="#E6ACB5" transform="translate(17,22)"/>
<path d="M0 0 C3.3 0 6.6 0 10 0 C8.02 0.99 8.02 0.99 6 2 C5.01 1.67 4.02 1.34 3 1 C2.34 2.65 1.68 4.3 1 6 C0.67 6 0.34 6 0 6 C0 4.02 0 2.04 0 0 Z " fill="#F7F7F7" transform="translate(0,0)"/>
<path d="M0 0 C0.66 0.99 1.32 1.98 2 3 C2.66 2.67 3.32 2.34 4 2 C4 3.32 4 4.64 4 6 C1.69 6 -0.62 6 -3 6 C-2.67 5.34 -2.34 4.68 -2 4 C-1.34 4 -0.68 4 0 4 C-0.33 3.01 -0.66 2.02 -1 1 C-0.67 0.67 -0.34 0.34 0 0 Z " fill="#DECFAD" transform="translate(28,26)"/>
<path d="M0 0 C0.66 0 1.32 0 2 0 C2.66 1.98 3.32 3.96 4 6 C2.02 6 0.04 6 -2 6 C-1.34 4.02 -0.68 2.04 0 0 Z " fill="#F3EAE5" transform="translate(14,22)"/>
<path d="M0 0 C2.64 0 5.28 0 8 0 C6.875 1.5 6.875 1.5 5 3 C1.8125 3.1875 1.8125 3.1875 -1 3 C-0.67 2.01 -0.34 1.02 0 0 Z " fill="#463935" transform="translate(20,29)"/>
<path d="M0 0 C-0.33 1.65 -0.66 3.3 -1 5 C-2.65 5 -4.3 5 -6 5 C-5.625 3.0625 -5.625 3.0625 -5 1 C-3 0 -3 0 0 0 Z " fill="#D1CBC1" transform="translate(22,4)"/>
<path d="M0 0 C0 0.99 0 1.98 0 3 C-2.31 2.67 -4.62 2.34 -7 2 C-5.26578631 -1.46842738 -3.40984787 -1.13661596 0 0 Z " fill="#615B67" transform="translate(32,3)"/>
<path d="M0 0 C1.65 0 3.3 0 5 0 C4.67 1.32 4.34 2.64 4 4 C2.68 3.67 1.36 3.34 0 3 C0 2.01 0 1.02 0 0 Z " fill="#F8C6C4" transform="translate(8,23)"/>
<path d="M0 0 C1.65 0.99 3.3 1.98 5 3 C4.67 3.99 4.34 4.98 4 6 C2.68 5.34 1.36 4.68 0 4 C0 2.68 0 1.36 0 0 Z " fill="#F2E2BD" transform="translate(26,14)"/>
<path d="M0 0 C0.33 0.66 0.66 1.32 1 2 C0.67 2.66 0.34 3.32 0 4 C-3.0625 4.625 -3.0625 4.625 -6 5 C-5.67 3.68 -5.34 2.36 -5 1 C-3.35 0.67 -1.7 0.34 0 0 Z " fill="#FAE8C7" transform="translate(13,12)"/>
</svg>
